<svg width="63" height="17" viewBox="0 0 63 17" fill="none" xmlns="http://www.w3.org/2000/svg">
<g clip-path="url(#clip0_3_16)">
<path d="M18 12.4849V17H0V0H5.0611V12.4849H18Z" fill="black"/>
<path d="M62.9907 0H56.069L50.8406 5.26527L45.6401 0H33.5365V8.35535C33.5365 10.3904 32.9039 12.547 28.3546 12.547C23.8053 12.547 23.1726 10.4185 23.1726 8.35535V0H18V8.35535C18 14.1994 21.1073 17 28.3639 17C35.5925 17 38.7277 14.1713 38.7277 8.35535V0.326748C38.7277 0.214723 38.8579 0.15871 38.9417 0.23339L47.2495 8.37401L38.6998 16.748H45.6493L50.8499 11.4827L56.0783 16.748H63L54.4782 8.37401L62.9907 0Z" fill="black"/>
</g>
<defs>
<clipPath id="clip0_3_16">
<rect width="63" height="17" fill="white"/>
</clipPath>
</defs>
</svg>
