<svg height="256" viewBox="0 0 256 256" width="256" xmlns="http://www.w3.org/2000/svg"><g fill="none" stroke-miterlimit="10" stroke-width="0" transform="matrix(2.81 0 0 2.81 1.406593 1.406593)"><circle cx="45" cy="45" fill="#4bae4f" r="45"/><g fill="#fff"><path d="m22.608 69.5c-.527 0-1.041-.209-1.422-.594-.502-.508-.696-1.245-.507-1.935l2.949-10.77c-1.857-3.498-2.834-7.424-2.833-11.406.005-13.396 10.906-24.295 24.299-24.295 6.498.002 12.603 2.533 17.189 7.126 4.587 4.592 7.111 10.697 7.109 17.189-.005 13.398-10.905 24.298-24.299 24.298-3.79-.001-7.541-.892-10.906-2.583l-11.072 2.904c-.167.045-.338.066-.507.066zm11.821-7.101c.332 0 .662.083.958.244 2.961 1.615 6.314 2.469 9.699 2.47 11.197 0 20.302-9.106 20.307-20.3.002-5.424-2.107-10.524-5.939-14.36-3.832-3.837-8.932-5.951-14.36-5.953-11.188 0-20.293 9.105-20.298 20.298-.001 3.565.936 7.075 2.709 10.147.267.463.337 1.013.197 1.528l-2.249 8.213 8.47-2.222c.165-.043.336-.065.506-.065z"/><path d="m36.375 45.246c-.285-.38-2.325-3.088-2.325-5.891s1.471-4.181 1.993-4.751 1.139-.712 1.519-.712.76.004 1.092.02c.35.018.819-.133 1.281.978.475 1.14 1.613 3.944 1.756 4.229s.237.617.048.998c-.19.38-.285.617-.569.95-.285.333-.598.743-.855.998-.285.284-.582.592-.25 1.162s1.475 2.435 3.168 3.946c2.175 1.941 4.01 2.542 4.58 2.827.569.285.902.238 1.234-.143.332-.38 1.424-1.663 1.804-2.233s.759-.475 1.281-.285 3.322 1.568 3.891 1.853.949.428 1.092.665c.143.238.143 1.378-.332 2.708s-2.75 2.545-3.844 2.708c-.981.147-2.223.208-3.587-.226-.827-.262-1.888-.613-3.247-1.2-5.714-2.468-9.444-8.221-9.73-8.601z"/></g></g></svg>