<svg width="256" height="256" viewBox="0 0 256 256" fill="none" xmlns="http://www.w3.org/2000/svg">
<path d="M127.856 254.307C197.693 254.307 254.306 197.693 254.306 127.857C254.306 58.0202 197.693 1.40662 127.856 1.40662C58.0201 1.40662 1.40649 58.0202 1.40649 127.857C1.40649 197.693 58.0201 254.307 127.856 254.307Z" fill="#22E38F"/>
<path d="M64.935 196.702C63.4542 196.702 62.0098 196.114 60.9392 195.032C59.5286 193.605 58.9835 191.534 59.5145 189.595L67.8012 159.331C62.5831 149.502 59.8377 138.47 59.8405 127.281C59.8546 89.6378 90.4864 59.0116 128.121 59.0116C146.38 59.0172 163.535 66.1293 176.422 79.0357C189.311 91.9392 196.404 109.094 196.398 127.337C196.384 164.985 165.755 195.614 128.118 195.614C117.468 195.611 106.928 193.108 97.472 188.356L66.3597 196.516C65.8904 196.643 65.4099 196.702 64.935 196.702ZM98.152 176.748C99.085 176.748 100.012 176.981 100.844 177.433C109.164 181.972 118.586 184.371 128.098 184.374C159.562 184.374 185.147 158.786 185.161 127.331C185.166 112.09 179.24 97.7587 168.472 86.9795C157.704 76.1976 143.373 70.2572 128.121 70.2516C96.6824 70.2516 71.0974 95.8366 71.0833 127.289C71.0805 137.307 73.7135 147.17 78.6956 155.802C79.4459 157.103 79.6426 158.649 79.2492 160.096L72.9295 183.174L96.7302 176.93C97.1938 176.81 97.6743 176.748 98.152 176.748Z" fill="white"/>
<path d="M103.62 128.548C102.82 127.48 97.0872 119.871 97.0872 111.994C97.0872 104.118 101.221 100.245 102.687 98.6438C104.154 97.0421 105.888 96.6431 106.956 96.6431C108.024 96.6431 109.091 96.6543 110.024 96.6993C111.008 96.7498 112.326 96.3255 113.624 99.4474C114.959 102.651 118.157 110.53 118.558 111.331C118.96 112.132 119.224 113.065 118.693 114.135C118.159 115.203 117.892 115.869 117.094 116.805C116.294 117.741 115.414 118.893 114.692 119.609C113.891 120.407 113.056 121.273 113.989 122.874C114.922 124.476 118.134 129.717 122.891 133.963C129.003 139.417 134.159 141.106 135.761 141.907C137.36 142.707 138.296 142.575 139.229 141.505C140.162 140.437 143.23 136.832 144.298 135.23C145.366 133.628 146.431 133.895 147.898 134.429C149.364 134.963 157.232 138.835 158.831 139.636C160.43 140.437 161.498 140.839 161.9 141.505C162.302 142.173 162.302 145.377 160.967 149.114C159.632 152.851 153.239 156.266 150.165 156.724C147.409 157.137 143.919 157.308 140.086 156.089C137.762 155.352 134.781 154.366 130.962 152.717C114.905 145.782 104.424 129.616 103.62 128.548Z" fill="white"/>
</svg>
